<svg class="ico_svg ico_tab" width="24" height="24" viewBox="0 0 24 24" fill="none" xmlns="http://www.w3.org/2000/svg">
  <path class="svg-path svg-path01" d="M18.875 14.5H17.625C17.2734 14.5 17 14.8125 17 15.125V19.5H4.5V7H10.125C10.4375 7 10.75 6.72656 10.75 6.375V5.125C10.75 4.8125 10.4375 4.5 10.125 4.5H3.875C2.82031 4.5 2 5.35938 2 6.375V20.125C2 21.1797 2.82031 22 3.875 22H17.625C18.6406 22 19.5 21.1797 19.5 20.125V15.125C19.5 14.8125 19.1875 14.5 18.875 14.5ZM21.0625 2H16.0625C15.2031 2 14.7734 3.01562 15.3984 3.60156L16.7656 5.00781L7.27344 14.5391C7.07812 14.6953 6.96094 14.9297 6.96094 15.2031C6.96094 15.4766 7.07812 15.7109 7.27344 15.8672L8.13281 16.7266C8.32812 16.9219 8.5625 17.0391 8.79688 17.0391C9.07031 17.0391 9.30469 16.9219 9.46094 16.7266L18.9922 7.23438L20.3984 8.60156C20.9844 9.1875 22 8.79688 22 7.9375V2.9375C22 2.42969 21.5703 2 21.0625 2Z" fill="black" />
</svg>