<svg class="ico_svg ico_scroll" width="85" height="85" viewBox="0 0 85 85" fill="none" xmlns="http://www.w3.org/2000/svg">
<path opacity="0.7" d="M73.7426 0H11.2574C5.04011 0 0 5.04011 0 11.2574V73.7426C0 79.9599 5.04011 85 11.2574 85H73.7426C79.9599 85 85 79.9599 85 73.7426V11.2574C85 5.04011 79.9599 0 73.7426 0Z" fill="#222222"/>
<path d="M58.0353 59.9026H39.0037C38.7651 59.9048 38.534 59.8199 38.3536 59.6639C38.1732 59.5078 38.0558 59.2914 38.0236 59.055L36.3946 47.9963L28.713 40.3545C27.977 39.6106 27.5642 38.6064 27.5642 37.56C27.5642 36.5136 27.977 35.5094 28.713 34.7655C29.465 34.0451 30.4661 33.6429 31.5075 33.6429C32.5489 33.6429 33.55 34.0451 34.302 34.7655L36.686 37.1229V19.0184C36.686 17.9646 37.1045 16.954 37.8497 16.2089C38.5948 15.4638 39.6054 15.0452 40.6592 15.0452C41.7129 15.0452 42.7235 15.4638 43.4687 16.2089C44.2138 16.954 44.6324 17.9646 44.6324 19.0184V29.0441L56.552 31.7856C57.8398 32.0805 58.9887 32.8052 59.8096 33.8404C60.6305 34.8755 61.0745 36.1594 61.0682 37.4805V47.4533C61.0747 47.506 61.0747 47.5594 61.0682 47.6122L59.0816 59.0682C59.0398 59.3114 58.9101 59.5307 58.7172 59.6845C58.5243 59.8383 58.2816 59.9159 58.0353 59.9026ZM39.8645 57.916H57.2009L59.0286 47.3208V37.56C59.0303 36.6885 58.7367 35.8421 58.1955 35.159C57.6543 34.4759 56.8975 33.9964 56.0487 33.7987L43.4138 30.885C43.1955 30.8342 43.0007 30.711 42.8613 30.5355C42.7218 30.3599 42.6459 30.1424 42.6458 29.9182V19.0184C42.6458 18.4915 42.4365 17.9862 42.0639 17.6137C41.6913 17.2411 41.186 17.0318 40.6592 17.0318C40.1323 17.0318 39.627 17.2411 39.2544 17.6137C38.8818 17.9862 38.6726 18.4915 38.6726 19.0184V39.4936C38.6724 39.69 38.6141 39.8818 38.5049 40.045C38.3957 40.2082 38.2406 40.3354 38.0592 40.4105C37.8778 40.4856 37.6783 40.5053 37.4857 40.467C37.2932 40.4288 37.1162 40.3343 36.9773 40.1956L32.9114 36.1561C32.5332 35.8004 32.0334 35.6024 31.5141 35.6024C30.9949 35.6024 30.4952 35.8004 30.117 36.1561C29.9336 36.3383 29.788 36.555 29.6887 36.7936C29.5894 37.0323 29.5382 37.2883 29.5382 37.5468C29.5382 37.8053 29.5894 38.0612 29.6887 38.2999C29.788 38.5385 29.9336 38.7552 30.117 38.9374L38.0634 46.8176C38.2192 46.9641 38.3177 47.1612 38.3415 47.3738L39.8645 57.916Z" fill="white"/>
<path d="M43.6788 38.1162C43.4154 38.1162 43.1627 38.0116 42.9764 37.8253C42.7901 37.639 42.6855 37.3864 42.6855 37.1229V29.852C42.6855 29.5885 42.7901 29.3359 42.9764 29.1496C43.1627 28.9633 43.4154 28.8587 43.6788 28.8587C43.9423 28.8587 44.1949 28.9633 44.3811 29.1496C44.5674 29.3359 44.6721 29.5885 44.6721 29.852V37.1229C44.6739 37.2539 44.6493 37.3838 44.6 37.5052C44.5508 37.6265 44.4778 37.7367 44.3852 37.8293C44.2926 37.9219 44.1824 37.995 44.061 38.0443C43.9397 38.0935 43.8098 38.118 43.6788 38.1162Z" fill="white"/>
<path d="M49.2279 39.9042C48.9645 39.9042 48.7119 39.7995 48.5256 39.6132C48.3393 39.427 48.2346 39.1743 48.2346 38.9109V31.2823C48.2346 31.0189 48.3393 30.7663 48.5256 30.58C48.7119 30.3937 48.9645 30.289 49.2279 30.289C49.4914 30.289 49.7441 30.3937 49.9304 30.58C50.1166 30.7663 50.2212 31.0189 50.2212 31.2823V38.8844C50.2266 39.0175 50.2049 39.1504 50.1572 39.2748C50.1095 39.3992 50.0371 39.5126 49.9441 39.6081C49.8511 39.7035 49.7397 39.779 49.6166 39.8299C49.4934 39.8808 49.3611 39.9061 49.2279 39.9042Z" fill="white"/>
<path d="M54.7904 41.1094C54.527 41.1094 54.2742 41.0047 54.088 40.8184C53.9017 40.6322 53.7971 40.3795 53.7971 40.1161V32.4743C53.7971 32.2108 53.9017 31.9582 54.088 31.7719C54.2742 31.5856 54.527 31.481 54.7904 31.481C55.0539 31.481 55.3064 31.5856 55.4927 31.7719C55.679 31.9582 55.7837 32.2108 55.7837 32.4743V40.1161C55.7803 40.3784 55.6745 40.6291 55.489 40.8146C55.3035 41.0002 55.0528 41.1059 54.7904 41.1094Z" fill="white"/>
<path d="M16.5287 75.12L16.4624 75.014C16.4299 74.9411 16.4131 74.8621 16.4131 74.7823C16.4131 74.7024 16.4299 74.6234 16.4624 74.5505C16.4854 74.4713 16.5243 74.3975 16.5767 74.3338C16.6291 74.2701 16.6937 74.2176 16.767 74.1797C19.1859 72.9708 21.1878 71.0659 22.515 68.7099H17.8531C17.7711 68.7131 17.6894 68.6982 17.6138 68.6661C17.5382 68.6341 17.4706 68.5857 17.4159 68.5245C17.3567 68.4682 17.3098 68.4004 17.2779 68.3252C17.246 68.25 17.2298 68.1691 17.2305 68.0874V67.9815C17.2298 67.8998 17.246 67.8189 17.2779 67.7437C17.3098 67.6685 17.3567 67.6007 17.4159 67.5444C17.4728 67.487 17.5412 67.442 17.6164 67.4123C17.6916 67.3827 17.7723 67.3691 17.8531 67.3723H23.6009C23.7633 67.3717 23.9196 67.4333 24.0379 67.5444C24.0971 67.6007 24.1443 67.6685 24.1762 67.7437C24.208 67.8189 24.224 67.8998 24.2234 67.9815V68.0212C24.2286 68.4352 24.1332 68.8442 23.9453 69.2131C23.4599 70.1455 22.8592 71.0132 22.1574 71.7957C22.1486 71.8044 22.1415 71.8147 22.1367 71.8261C22.1319 71.8374 22.1296 71.8496 22.1296 71.8619C22.1296 71.8743 22.1319 71.8865 22.1367 71.8979C22.1415 71.9093 22.1486 71.9196 22.1574 71.9282C23.1242 72.8023 23.9717 73.6102 24.7134 74.3254C24.7726 74.3816 24.8197 74.4494 24.8516 74.5246C24.8835 74.5998 24.8995 74.6807 24.8988 74.7624C24.9028 74.9293 24.8409 75.091 24.7266 75.2127L24.5942 75.3319C24.4704 75.4427 24.3101 75.504 24.144 75.5041C23.9795 75.5024 23.8223 75.4358 23.7068 75.3187C22.7797 74.4048 21.9455 73.6102 21.1906 72.9215C21.1697 72.9054 21.144 72.8966 21.1177 72.8966C21.0913 72.8966 21.0656 72.9054 21.0448 72.9215C19.9671 73.9107 18.7597 74.7484 17.4557 75.4113C17.3783 75.4445 17.295 75.4616 17.2108 75.4616C17.1265 75.4616 17.0431 75.4445 16.9657 75.4113C16.8754 75.3994 16.7891 75.3669 16.7133 75.3164C16.6375 75.2659 16.5744 75.1987 16.5287 75.12Z" fill="white"/>
<path d="M27.5741 71.8222L27.4815 71.7428C27.4221 71.6887 27.3738 71.6235 27.3397 71.5507C27.3056 71.478 27.2863 71.3992 27.2828 71.319C27.2786 71.2392 27.2906 71.1594 27.3179 71.0843C27.3452 71.0092 27.3873 70.9404 27.4417 70.8819C28.3428 69.8635 28.9595 68.6256 29.2296 67.2928C29.2672 67.1256 29.3606 66.9761 29.4944 66.869C29.626 66.7641 29.7899 66.7079 29.9581 66.7101H30.1434C30.2256 66.717 30.3056 66.7405 30.3784 66.7792C30.4513 66.8179 30.5156 66.8709 30.5673 66.9352C30.6182 66.9947 30.6553 67.0648 30.6759 67.1404C30.6965 67.2159 30.7001 67.2952 30.6864 67.3723C30.6864 67.4385 30.6864 67.5312 30.6864 67.6504C30.6864 67.7696 30.6865 67.7299 30.7527 67.7299H34.8716C35.0401 67.7309 35.2015 67.7974 35.3218 67.9153C35.3804 67.9686 35.4262 68.0343 35.456 68.1076C35.4858 68.181 35.4988 68.26 35.494 68.3391C35.5938 70.2301 34.9952 72.0919 33.812 73.5705C32.4464 74.8667 30.6601 75.6283 28.7794 75.716C28.6951 75.7269 28.6094 75.7208 28.5275 75.6981C28.4456 75.6753 28.3692 75.6364 28.3026 75.5835C28.1683 75.479 28.0784 75.3277 28.0509 75.1598V75.067C28.038 74.9908 28.0408 74.9127 28.059 74.8376C28.0772 74.7624 28.1104 74.6918 28.1568 74.63C28.202 74.561 28.2627 74.5036 28.334 74.4622C28.4052 74.4208 28.4852 74.3966 28.5674 74.3916C30.0209 74.3014 31.4099 73.7597 32.5406 72.8421C33.4557 71.823 33.9646 70.5033 33.9709 69.1337C33.9733 69.121 33.9726 69.1079 33.9688 69.0956C33.965 69.0833 33.9582 69.0721 33.9491 69.0629C33.94 69.0538 33.9288 69.047 33.9164 69.0432C33.9041 69.0394 33.891 69.0386 33.8783 69.041H30.4216C30.3924 69.0397 30.3636 69.048 30.3396 69.0648C30.3157 69.0816 30.2979 69.1058 30.2892 69.1337C29.8839 70.1123 29.305 71.0097 28.5807 71.7825C28.5267 71.8454 28.4596 71.8958 28.3841 71.9302C28.3086 71.9645 28.2266 71.9819 28.1437 71.9812C28.0429 71.9996 27.9392 71.9949 27.8405 71.9673C27.7419 71.9398 27.6508 71.8902 27.5741 71.8222Z" fill="white"/>
<path d="M38.8049 75.3848C38.7229 75.3881 38.6412 75.3732 38.5657 75.3411C38.4901 75.3091 38.4226 75.2607 38.3679 75.1995C38.3105 75.1425 38.2655 75.0743 38.2359 74.999C38.2062 74.9238 38.1926 74.8432 38.1958 74.7624V68.0212C38.1926 67.9404 38.2062 67.8598 38.2359 67.7845C38.2655 67.7093 38.3105 67.6411 38.3679 67.5841C38.4219 67.5212 38.489 67.4708 38.5645 67.4365C38.64 67.4022 38.722 67.3848 38.8049 67.3855H46.1952C46.2781 67.3848 46.3601 67.4022 46.4356 67.4365C46.5111 67.4708 46.5782 67.5212 46.6322 67.5841C46.6914 67.6404 46.7384 67.7082 46.7703 67.7834C46.8022 67.8586 46.8183 67.9395 46.8176 68.0212V74.8154C46.8183 74.897 46.8022 74.978 46.7703 75.0531C46.7384 75.1283 46.6914 75.1961 46.6322 75.2524C46.5775 75.3136 46.51 75.362 46.4345 75.3941C46.3589 75.4262 46.2772 75.4411 46.1952 75.4378H38.8049V75.3848ZM39.7321 68.7628V73.9413C39.7321 73.9413 39.732 74.034 39.8115 74.034H45.1886C45.2013 74.0363 45.2143 74.0356 45.2266 74.0317C45.239 74.0279 45.2502 74.0212 45.2593 74.012C45.2684 74.0029 45.2752 73.9917 45.279 73.9794C45.2828 73.967 45.2837 73.9539 45.2813 73.9413V68.7628C45.2837 68.7502 45.2828 68.7371 45.279 68.7247C45.2752 68.7124 45.2684 68.7012 45.2593 68.6921C45.2502 68.6829 45.239 68.6762 45.2266 68.6724C45.2143 68.6685 45.2013 68.6678 45.1886 68.6701H39.8115C39.8115 68.6701 39.7321 68.7099 39.7321 68.7761V68.7628Z" fill="white"/>
<path d="M49.559 72.1003C49.4773 72.101 49.3963 72.0849 49.3211 72.053C49.246 72.0211 49.1782 71.9741 49.122 71.9149C49.0072 71.7979 48.9409 71.6417 48.9365 71.4778V71.2527C48.9399 71.0887 49.0066 70.9323 49.1226 70.8163C49.2386 70.7003 49.3949 70.6336 49.559 70.6302H57.3862C57.4656 70.6313 57.544 70.6483 57.6167 70.6802C57.6895 70.712 57.7552 70.7581 57.8099 70.8156C57.8712 70.8703 57.9197 70.9378 57.9517 71.0134C57.9838 71.089 57.9986 71.1707 57.9954 71.2527V71.4778C57.9921 71.6397 57.9273 71.7942 57.8141 71.9098C57.7009 72.0255 57.5479 72.0936 57.3862 72.1003H49.559Z" fill="white"/>
<path d="M60.0085 75.3054L59.876 75.1067C59.8313 75.0392 59.8011 74.9631 59.7875 74.8833C59.7738 74.8035 59.7768 74.7217 59.7965 74.6432C59.8144 74.5671 59.8486 74.4957 59.8966 74.434C59.9446 74.3723 60.0054 74.3217 60.0747 74.2856C60.6422 73.9532 61.0561 73.4109 61.227 72.7758C61.4539 71.625 61.5428 70.4512 61.4918 69.2794V67.6636C61.4929 67.5842 61.5099 67.5058 61.5417 67.433C61.5736 67.3602 61.6196 67.2945 61.6772 67.2398C61.7335 67.1806 61.8014 67.1336 61.8765 67.1017C61.9517 67.0698 62.0325 67.0537 62.1142 67.0543H62.3659C62.4476 67.0537 62.5286 67.0698 62.6037 67.1017C62.6789 67.1336 62.7467 67.1806 62.8029 67.2398C62.8605 67.2945 62.9066 67.3602 62.9384 67.433C62.9702 67.5058 62.9873 67.5842 62.9884 67.6636V69.3456C63.0073 70.4131 62.9409 71.4804 62.7897 72.5374C62.7027 73.1998 62.4867 73.8387 62.154 74.418C61.8318 74.8998 61.4009 75.299 60.8959 75.5835C60.7495 75.6739 60.5733 75.7025 60.4058 75.6629C60.3176 75.6358 60.2363 75.5897 60.1677 75.528C60.0991 75.4662 60.0447 75.3903 60.0085 75.3054ZM65.028 75.7027C64.9469 75.7085 64.8655 75.6961 64.7898 75.6663C64.7142 75.6365 64.6461 75.5901 64.5908 75.5305C64.5316 75.4743 64.4847 75.4064 64.4528 75.3312C64.4209 75.2561 64.4049 75.1751 64.4056 75.0935V67.6636C64.4067 67.5842 64.4235 67.5058 64.4553 67.433C64.4872 67.3602 64.5332 67.2945 64.5908 67.2398C64.7112 67.1219 64.8728 67.0554 65.0412 67.0543H65.3061C65.3877 67.0537 65.4687 67.0698 65.5439 67.1017C65.6191 67.1336 65.6868 67.1806 65.743 67.2398C65.805 67.2917 65.8549 67.3566 65.8892 67.4298C65.9235 67.503 65.9414 67.5828 65.9417 67.6636V74.1002C65.9417 74.1002 65.9418 74.1797 66.0213 74.1664C66.5972 74.0153 67.1028 73.6689 67.4516 73.1863C67.845 72.576 68.0899 71.882 68.1668 71.16C68.2035 71.003 68.2921 70.863 68.4184 70.7627C68.4808 70.7122 68.5532 70.6755 68.6308 70.6549C68.7084 70.6344 68.7896 70.6305 68.8688 70.6435H69.0277C69.1907 70.6656 69.3382 70.7513 69.4382 70.8819C69.4945 70.9437 69.5356 71.0178 69.5586 71.0982C69.5816 71.1786 69.5857 71.2632 69.5706 71.3454C69.16 74.1267 67.6371 75.5835 65.028 75.7027Z" fill="white"/>
<path d="M49.5326 24.9385C49.3766 24.9363 49.223 24.9002 49.0824 24.8325C48.8501 24.7134 48.6741 24.5077 48.5923 24.2599C48.5105 24.0121 48.5296 23.742 48.6454 23.5081C49.2694 22.2764 49.5959 20.9156 49.5989 19.5349C49.6055 18.1835 49.3057 16.8482 48.722 15.6294C48.1383 14.4106 47.2858 13.34 46.2287 12.4981C45.1716 11.6562 43.9375 11.0648 42.619 10.7686C41.3004 10.4724 39.932 10.4789 38.6163 10.7877C37.3007 11.0966 36.0722 11.6997 35.0232 12.5517C33.9742 13.4036 33.1321 14.4824 32.56 15.7067C31.988 16.9311 31.7009 18.2691 31.7205 19.6204C31.74 20.9716 32.0657 22.3009 32.673 23.5081C32.7924 23.7435 32.8135 24.0166 32.7315 24.2675C32.6496 24.5183 32.4714 24.7263 32.236 24.8457C32.0007 24.9652 31.7275 24.9862 31.4767 24.9043C31.2258 24.8223 31.0178 24.6441 30.8984 24.4087C30.0604 22.7429 29.6627 20.8903 29.7431 19.0273C29.8235 17.1644 30.3793 15.353 31.3577 13.7655C32.3361 12.1781 33.7045 10.8675 35.3327 9.95845C36.9608 9.04941 38.7945 8.57217 40.6592 8.57217C42.5239 8.57217 44.3576 9.04941 45.9857 9.95845C47.6139 10.8675 48.9823 12.1781 49.9607 13.7655C50.9391 15.353 51.4949 17.1644 51.5753 19.0273C51.6557 20.8903 51.258 22.7429 50.42 24.4087C50.3338 24.569 50.2057 24.7029 50.0495 24.7962C49.8932 24.8894 49.7146 24.9386 49.5326 24.9385Z" fill="white"/>
<path d="M30.7262 20.462H16.608C16.4101 20.4618 16.2167 20.4026 16.0527 20.2917C15.8887 20.1809 15.7615 20.0236 15.6875 19.84C15.6135 19.6564 15.596 19.4549 15.6374 19.2613C15.6787 19.0677 15.7768 18.8909 15.9193 18.7535L21.6939 13.191C21.8898 13.0701 22.1215 13.021 22.3496 13.0521C22.5777 13.0831 22.788 13.1925 22.9444 13.3614C23.1008 13.5303 23.1936 13.7483 23.2071 13.9782C23.2206 14.208 23.1539 14.4353 23.0183 14.6214L19.0451 18.4754H30.6997C30.9631 18.4754 31.2158 18.58 31.4021 18.7663C31.5884 18.9526 31.693 19.2052 31.693 19.4687C31.693 19.7321 31.5884 19.9848 31.4021 20.171C31.2158 20.3573 30.9631 20.462 30.6997 20.462H30.7262Z" fill="white"/>
<path d="M22.3821 26.0245C22.1258 26.0216 21.88 25.9223 21.6936 25.7464L15.9191 20.1839C15.7834 19.9978 15.7168 19.7705 15.7302 19.5407C15.7437 19.3108 15.8365 19.0928 15.9929 18.9239C16.1493 18.755 16.3596 18.6456 16.5877 18.6146C16.8158 18.5835 17.0476 18.6326 17.2435 18.7535L23.018 24.316C23.1605 24.4534 23.2586 24.6302 23.2999 24.8238C23.3413 25.0174 23.3238 25.2189 23.2498 25.4025C23.1758 25.5861 23.0486 25.7435 22.8846 25.8543C22.7206 25.9651 22.5272 26.0243 22.3293 26.0245H22.3821Z" fill="white"/>
<path d="M64.7235 20.462H50.6054C50.3419 20.462 50.0892 20.3573 49.9029 20.171C49.7166 19.9848 49.6121 19.7321 49.6121 19.4687C49.6121 19.2052 49.7166 18.9526 49.9029 18.7663C50.0892 18.58 50.3419 18.4754 50.6054 18.4754H62.26L58.2868 14.6214C58.162 14.5443 58.0559 14.4406 57.9759 14.3176C57.8959 14.1947 57.8442 14.0555 57.8244 13.9102C57.8046 13.7649 57.8171 13.617 57.8613 13.4771C57.9054 13.3372 57.98 13.2089 58.0797 13.1013C58.1793 12.9936 58.3016 12.9094 58.4376 12.8547C58.5737 12.7999 58.7203 12.7759 58.8667 12.7845C59.0131 12.7931 59.1559 12.834 59.2846 12.9043C59.4134 12.9746 59.5248 13.0725 59.6112 13.191L65.3857 18.7535C65.5277 18.8911 65.6261 19.0675 65.6685 19.2606C65.7109 19.4537 65.6953 19.6551 65.624 19.8395C65.55 20.0191 65.4256 20.1734 65.2658 20.2839C65.106 20.3943 64.9177 20.4562 64.7235 20.462Z" fill="white"/>
<path d="M58.9489 26.0245C58.8155 26.0236 58.6836 25.9963 58.5608 25.944C58.438 25.8917 58.3269 25.8155 58.2339 25.7199C58.0479 25.5336 57.9434 25.2812 57.9434 25.0179C57.9434 24.7547 58.0479 24.5022 58.2339 24.316L64.0082 18.7535C64.0946 18.635 64.2062 18.5371 64.335 18.4668C64.4637 18.3965 64.6063 18.3556 64.7527 18.347C64.8991 18.3384 65.0457 18.3624 65.1818 18.4172C65.3179 18.4719 65.4401 18.5561 65.5397 18.6638C65.6394 18.7714 65.714 18.8997 65.7581 19.0396C65.8023 19.1795 65.815 19.3274 65.7952 19.4727C65.7754 19.618 65.7235 19.7572 65.6435 19.8802C65.5636 20.0031 65.4574 20.1068 65.3326 20.1839L59.5583 25.7464C59.3935 25.9068 59.1781 26.0051 58.9489 26.0245Z" fill="white"/>
</svg>
