<svg class="ico_svg ico_toggle" width="25" height="25" viewBox="0 0 25 25" fill="none" xmlns="http://www.w3.org/2000/svg">
<path class="svg-path svg-path01" fill-rule="evenodd" clip-rule="evenodd" d="M6.5 12.5C6.5 11.9477 6.94772 11.5 7.5 11.5H17.5C18.0523 11.5 18.5 11.9477 18.5 12.5C18.5 13.0523 18.0523 13.5 17.5 13.5H7.5C6.94772 13.5 6.5 13.0523 6.5 12.5Z" fill="black"/>
<path class="svg-path svg-path02" fill-rule="evenodd" clip-rule="evenodd" d="M12.5 6.29163C13.0523 6.29163 13.5 6.73934 13.5 7.29163L13.5 17.7083C13.5 18.2606 13.0523 18.7083 12.5 18.7083C11.9477 18.7083 11.5 18.2606 11.5 17.7083L11.5 7.29163C11.5 6.73934 11.9477 6.29163 12.5 6.29163Z" fill="black"/>
</svg>
