<?xml version="1.0" encoding="UTF-8"?>
<svg id="ico_mail" data-name="mail" xmlns="http://www.w3.org/2000/svg" version="1.1" viewBox="0 0 22 16">
  <!-- Generator: Adobe Illustrator 29.0.0, SVG Export Plug-In . SVG Version: 2.1.0 Build 186)  -->
  <defs>
    <style>
      .st0 {
        fill: #211e1f;
      }
    </style>
  </defs>
  <path class="st0" d="M19.44.72H2.56c-1.1,0-1.99.89-1.99,1.99v10.57c0,.53.21,1.03.58,1.41.38.38.88.58,1.41.58h16.88c.53,0,1.03-.2,1.41-.58.38-.38.58-.88.58-1.41V2.72c0-1.1-.89-1.99-1.99-1.99M2.56,2.41h16.88c.17,0,.31.13.31.31v1.25l-7.17,4.61s-.1.07-.14.12c-.48.47-1.11.73-1.78.73s-1.3-.26-1.78-.73c-.04-.05-.09-.08-.14-.12L2.26,4.41s0,0-.01,0v-1.69c0-.18.14-.31.31-.31M19.66,13.51s-.11.09-.22.09H2.56c-.11,0-.19-.05-.22-.09-.03-.03-.09-.11-.09-.22v-6.88c1.77,1.14,5.56,3.57,5.57,3.58,1.6,1.48,4.07,1.48,5.67,0,.01-.01,4.23-2.72,6.26-4.02v7.32c0,.11-.06.19-.09.22"/>
</svg>
